<?xml version="1.0" standalone="no"?><svg xmlns:xlink="http://www.w3.org/1999/xlink" xmlns="http://www.w3.org/2000/svg" viewBox="0 0 1000 545.4547729169195" preserveAspectRatio="xMaxYMax slice"><g transform="scale(1.251043057148898)"><rect x="0" y="0" width="799.3333333333334" height="436" fill="#ffffff"/><rect x="0" y="0" width="72.66666666666667" height="72.66666666666667" fill="#ffffff"/><rect x="0" y="0" width="36.33" height="36.33" fill="#ffb9c9"/><circle cx="18.165" cy="18.165" r="18.165" fill="#abb9f4"/><rect x="36.33" y="0" width="36.33" height="36.33" fill="#f6f7fe"/><rect x="36.33" y="0" width="36.33" height="36.33" fill="#ff84a1"/><rect x="0" y="36.33" width="36.33" height="36.33" fill="#4c6ae8"/><circle cx="18.165" cy="54.495" r="18.165" fill="#a1b1f3"/><rect x="36.33" y="36.33" width="36.33" height="36.33" fill="#90a3f1"/><rect x="36.33" y="36.33" width="36.33" height="36.33" fill="#ff4974"/><rect x="72.67" y="0" width="72.67" height="72.67" fill="#ffcad7"/><rect x="72.67" y="0" width="72.67" height="72.67" fill="#ffcbd7"/><rect x="145.33" y="0" width="72.67" height="72.67" fill="#ff416e"/><rect x="145.33" y="0" width="72.67" height="72.67" fill="#ffbccc"/><rect x="218" y="0" width="72.67" height="72.67" fill="#ff4672"/><polygon points="218,0 290.67,0 218,72.67" fill="#4968e7"/><rect x="290.67" y="0" width="72.67" height="72.67" fill="#ff426f"/><rect x="290.67" y="0" width="72.67" height="72.67" fill="#ff3e6c"/><rect x="363.33" y="0" width="72.67" height="72.67" fill="#c4cef7"/><rect x="363.33" y="0" width="72.67" height="72.67" fill="#d1d9f9"/><rect x="436" y="0" width="72.66666666666667" height="72.66666666666667" fill="#ffffff"/><rect x="436" y="0" width="36.33" height="36.33" fill="#ffdbe3"/><path d="M 436 36.33 A 36.33 36.33 0 0 1 472.33 0 L 472.33 9.0825 A 27.2475 27.2475 0 0 0 445.0825 36.33" fill="#ff6589"/><rect x="472.33" y="0" width="36.33" height="36.33" fill="#ffcbd7"/><path d="M 472.33 0 A 36.33 36.33 0 0 1 508.65999999999997 36.33 L 499.5775 36.33 A 27.2475 27.2475 0 0 0 472.33 9.0825" fill="#9bacf2"/><rect x="436" y="36.33" width="36.33" height="36.33" fill="#ff7a9a"/><path d="M 436 36.33 A 36.33 36.33 0 0 0 472.33 72.66 L 472.33 63.5775 A 27.2475 27.2475 0 0 1 445.0825 36.33" fill="#aebcf5"/><rect x="472.33" y="36.33" width="36.33" height="36.33" fill="#fffbfc"/><path d="M 472.33 72.66 A 36.33 36.33 0 0 0 508.65999999999997 36.33 L 499.5775 36.33 A 27.2475 27.2475 0 0 1 472.33 63.5775" fill="#ff6b8e"/><rect x="508.6666666666667" y="0" width="72.66666666666667" height="72.66666666666667" fill="#ffffff"/><rect x="508.67" y="0" width="36.33" height="36.33" fill="#97a9f2"/><polygon points="545,0 545,36.33 508.67,36.33" fill="#5471e9"/><rect x="545" y="0" width="36.33" height="36.33" fill="#ffd3dd"/><polygon points="545,0 581.33,36.33 545,36.33" fill="#5773e9"/><rect x="508.67" y="36.33" width="36.33" height="36.33" fill="#ff587f"/><polygon points="508.67,36.33 545,36.33 545,72.66" fill="#ff7092"/><rect x="545" y="36.33" width="36.33" height="36.33" fill="#ff84a2"/><polygon points="545,36.33 581.33,36.33 545,72.66" fill="#274ce3"/><rect x="581.33" y="0" width="72.67" height="72.67" fill="#ff6e91"/><rect x="581.33" y="0" width="72.67" height="72.67" fill="#a6b5f3"/><rect x="654" y="0" width="72.67" height="72.67" fill="#97a9f2"/><path d="M 654 0 A 72.67 72.67 0 0 0 726.67 72.67 L 726.67 0" fill="#ccd5f8"/><rect x="726.6666666666667" y="0" width="72.66666666666667" height="72.66666666666667" fill="#ffffff"/><rect x="726.67" y="0" width="36.33" height="36.33" fill="#ff8da8"/><polygon points="763,0 763,36.33 726.67,36.33" fill="#1940e1"/><rect x="763" y="0" width="36.33" height="36.33" fill="#d2daf9"/><polygon points="763,0 799.33,0 763,36.33" fill="#fffdfd"/><rect x="726.67" y="36.33" width="36.33" height="36.33" fill="#ffc1d0"/><polygon points="726.67,36.33 763,36.33 763,72.66" fill="#ff7d9c"/><rect x="763" y="36.33" width="36.33" height="36.33" fill="#ffbccc"/><polygon points="763,36.33 799.33,72.66 763,72.66" fill="#e8ecfc"/><rect x="0" y="72.67" width="72.67" height="72.67" fill="#90a3f1"/><rect x="0" y="72.67" width="72.67" height="72.67" fill="#fff6f8"/><rect x="72.67" y="72.67" width="72.67" height="72.67" fill="#fff9fb"/><rect x="72.67" y="72.67" width="72.67" height="72.67" fill="#ff7d9c"/><rect x="145.33" y="72.67" width="72.67" height="72.67" fill="#ff436f"/><rect x="145.33" y="72.67" width="72.67" height="72.67" fill="#2348e2"/><rect x="218" y="72.66666666666667" width="72.66666666666667" height="72.66666666666667" fill="#ffffff"/><rect x="218" y="72.67" width="36.33" height="36.33" fill="#ffc7d5"/><path d="M 218 109 A 36.33 36.33 0 0 0 254.32999999999998 72.67 L 218 72.67" fill="#798fee"/><rect x="254.33" y="72.67" width="36.33" height="36.33" fill="#ff7a9a"/><path d="M 254.33 72.67 A 36.33 36.33 0 0 0 290.66 109 L 290.66 72.67" fill="#284ce3"/><rect x="218" y="109" width="36.33" height="36.33" fill="#ff3565"/><path d="M 218 109 A 36.33 36.33 0 0 1 254.32999999999998 145.32999999999998 L 218 145.32999999999998" fill="#ff668a"/><rect x="254.33" y="109" width="36.33" height="36.33" fill="#ffcad6"/><path d="M 254.33 145.32999999999998 A 36.33 36.33 0 0 1  290.66 109 L 290.66 145.32999999999998" fill="#4c6ae8"/><rect x="290.6666666666667" y="72.66666666666667" width="72.66666666666667" height="72.66666666666667" fill="#ffffff"/><rect x="290.67" y="72.67" width="36.33" height="36.33" fill="#ffb1c4"/><path d="M 290.67 109 A 36.33 36.33 0 0 1  327 72.67 L 327 109" fill="#1f45e2"/><rect x="327" y="72.67" width="36.33" height="36.33" fill="#ff5079"/><path d="M 327 72.67 A 36.33 36.33 0 0 1 363.33 109 L 327 109" fill="#dee4fb"/><rect x="290.67" y="109" width="36.33" height="36.33" fill="#6b84ec"/><path d="M 290.67 109 A 36.33 36.33 0 0 0 327 145.32999999999998 L 327 109" fill="#ffb5c7"/><rect x="327" y="109" width="36.33" height="36.33" fill="#788fed"/><path d="M 327 145.32999999999998 A 36.33 36.33 0 0 0 363.33 109 L 327 109" fill="#ffc4d2"/><rect x="363.33333333333337" y="72.66666666666667" width="72.66666666666667" height="72.66666666666667" fill="#ffffff"/><rect x="363.33" y="72.67" width="36.33" height="36.33" fill="#748ced"/><circle cx="381.495" cy="90.83500000000001" r="18.165" fill="#4c6ae8"/><rect x="399.67" y="72.67" width="36.33" height="36.33" fill="#ffeaef"/><rect x="399.67" y="72.67" width="36.33" height="36.33" fill="#ffa0b6"/><rect x="363.33" y="109" width="36.33" height="36.33" fill="#778eed"/><circle cx="381.495" cy="127.16499999999999" r="18.165" fill="#fffdfd"/><rect x="399.67" y="109" width="36.33" height="36.33" fill="#ff7c9b"/><rect x="399.67" y="109" width="36.33" height="36.33" fill="#ff7595"/><rect x="436" y="72.67" width="72.67" height="72.67" fill="#ff6287"/><rect x="436" y="72.67" width="72.67" height="72.67" fill="#ff83a1"/><rect x="508.6666666666667" y="72.66666666666667" width="72.66666666666667" height="72.66666666666667" fill="#ffffff"/><rect x="508.67" y="72.67" width="36.33" height="36.33" fill="#9dadf2"/><path d="M 508.67 109 A 36.33 36.33 0 0 1 545 72.67 L 545 81.7525 A 27.2475 27.2475 0 0 0 517.7525 109" fill="#ffc8d5"/><rect x="545" y="72.67" width="36.33" height="36.33" fill="#91a3f1"/><path d="M 545 72.67 A 36.33 36.33 0 0 1 581.33 109 L 572.2475 109 A 27.2475 27.2475 0 0 0 545 81.7525" fill="#ff4571"/><rect x="508.67" y="109" width="36.33" height="36.33" fill="#9cacf2"/><path d="M 508.67 109 A 36.33 36.33 0 0 0 545 145.32999999999998 L 545 136.2475 A 27.2475 27.2475 0 0 1 517.7525 109" fill="#9aabf2"/><rect x="545" y="109" width="36.33" height="36.33" fill="#ff8da8"/><path d="M 545 145.32999999999998 A 36.33 36.33 0 0 0 581.33 109 L 572.2475 109 A 27.2475 27.2475 0 0 1 545 136.2475" fill="#5b77ea"/><rect x="581.3333333333334" y="72.66666666666667" width="72.66666666666667" height="72.66666666666667" fill="#ffffff"/><rect x="581.33" y="72.67" width="36.33" height="36.33" fill="#3c5de6"/><path d="M 581.33 109 A 36.33 36.33 0 0 1  617.6600000000001 72.67 L 617.6600000000001 109" fill="#e8ecfc"/><rect x="617.67" y="72.67" width="36.33" height="36.33" fill="#a0b0f3"/><path d="M 617.67 72.67 A 36.33 36.33 0 0 1 654 109 L 617.67 109" fill="#8b9ef0"/><rect x="581.33" y="109" width="36.33" height="36.33" fill="#ff3767"/><path d="M 581.33 109 A 36.33 36.33 0 0 0 617.6600000000001 145.32999999999998 L 617.6600000000001 109" fill="#9cadf2"/><rect x="617.67" y="109" width="36.33" height="36.33" fill="#ff4f79"/><path d="M 617.67 145.32999999999998 A 36.33 36.33 0 0 0 654 109 L 617.67 109" fill="#617cea"/><rect x="654" y="72.66666666666667" width="72.66666666666667" height="72.66666666666667" fill="#ffffff"/><rect x="654" y="72.67" width="36.33" height="36.33" fill="#9cadf2"/><path d="M 654 72.67 A 36.33 36.33 0 0 0 690.33 109 L 690.33 72.67" fill="#274ce3"/><rect x="690.33" y="72.67" width="36.33" height="36.33" fill="#ff5d84"/><path d="M 690.33 109 A 36.33 36.33 0 0 0 726.6600000000001 72.67 L 690.33 72.67" fill="#6680eb"/><rect x="654" y="109" width="36.33" height="36.33" fill="#ff3767"/><path d="M 654 145.32999999999998 A 36.33 36.33 0 0 1  690.33 109 L 690.33 145.32999999999998" fill="#7088ec"/><rect x="690.33" y="109" width="36.33" height="36.33" fill="#5f7aea"/><path d="M 690.33 109 A 36.33 36.33 0 0 1 726.6600000000001 145.32999999999998 L 690.33 145.32999999999998" fill="#ffd6e0"/><rect x="726.6666666666667" y="72.66666666666667" width="72.66666666666667" height="72.66666666666667" fill="#ffffff"/><rect x="726.67" y="72.67" width="36.33" height="36.33" fill="#e1e6fb"/><polygon points="763,72.67 763,109 726.67,109" fill="#92a5f1"/><rect x="763" y="72.67" width="36.33" height="36.33" fill="#b1bef5"/><polygon points="763,72.67 799.33,109 763,109" fill="#f1f4fd"/><rect x="726.67" y="109" width="36.33" height="36.33" fill="#bac6f6"/><polygon points="726.67,109 763,109 726.67,145.32999999999998" fill="#a6b5f3"/><rect x="763" y="109" width="36.33" height="36.33" fill="#ffa1b7"/><polygon points="763,109 799.33,109 799.33,145.32999999999998" fill="#fcfcff"/><rect x="0" y="145.33333333333334" width="72.66666666666667" height="72.66666666666667" fill="#ffffff"/><rect x="0" y="145.33" width="36.33" height="36.33" fill="#3759e5"/><path d="M 0 181.66000000000003 A 36.33 36.33 0 0 0 36.33 145.33 L 0 145.33" fill="#ff7193"/><rect x="36.33" y="145.33" width="36.33" height="36.33" fill="#ffb6c7"/><path d="M 36.33 145.33 A 36.33 36.33 0 0 0 72.66 181.66000000000003 L 72.66 145.33" fill="#ff87a3"/><rect x="0" y="181.67" width="36.33" height="36.33" fill="#ff98b1"/><path d="M 0 181.67 A 36.33 36.33 0 0 1 36.33 218 L 0 218" fill="#edf0fd"/><rect x="36.33" y="181.67" width="36.33" height="36.33" fill="#5370e9"/><path d="M 36.33 218 A 36.33 36.33 0 0 1  72.66 181.67 L 72.66 218" fill="#fffdfd"/><rect x="72.66666666666667" y="145.33333333333334" width="72.66666666666667" height="72.66666666666667" fill="#ffffff"/><rect x="72.67" y="145.33" width="36.33" height="36.33" fill="#ffccd8"/><path d="M 72.67 181.66000000000003 A 36.33 36.33 0 0 0 109 145.33 L 72.67 145.33" fill="#bec9f7"/><rect x="109" y="145.33" width="36.33" height="36.33" fill="#9aabf2"/><path d="M 109 145.33 A 36.33 36.33 0 0 0 145.32999999999998 181.66000000000003 L 145.32999999999998 145.33" fill="#ff95ae"/><rect x="72.67" y="181.67" width="36.33" height="36.33" fill="#ffbbcb"/><path d="M 72.67 181.67 A 36.33 36.33 0 0 1 109 218 L 72.67 218" fill="#ff4773"/><rect x="109" y="181.67" width="36.33" height="36.33" fill="#ff7797"/><path d="M 109 218 A 36.33 36.33 0 0 1  145.32999999999998 181.67 L 145.32999999999998 218" fill="#8297ef"/><rect x="145.33333333333334" y="145.33333333333334" width="72.66666666666667" height="72.66666666666667" fill="#ffffff"/><rect x="145.33" y="145.33" width="36.33" height="36.33" fill="#ff688c"/><path d="M 145.33 145.33 A 36.33 36.33 0 0 0 181.66000000000003 181.66000000000003 L 181.66000000000003 145.33" fill="#1b42e1"/><rect x="181.67" y="145.33" width="36.33" height="36.33" fill="#ff4571"/><path d="M 181.67 181.66000000000003 A 36.33 36.33 0 0 0 218 145.33 L 181.67 145.33" fill="#ffc9d6"/><rect x="145.33" y="181.67" width="36.33" height="36.33" fill="#d5dcfa"/><path d="M 145.33 218 A 36.33 36.33 0 0 1  181.66000000000003 181.67 L 181.66000000000003 218" fill="#3759e5"/><rect x="181.67" y="181.67" width="36.33" height="36.33" fill="#fff5f8"/><path d="M 181.67 181.67 A 36.33 36.33 0 0 1 218 218 L 181.67 218" fill="#c0caf7"/><rect x="218" y="145.33" width="72.67" height="72.67" fill="#ffccd8"/><rect x="218" y="145.33" width="72.67" height="72.67" fill="#7e94ee"/><rect x="290.6666666666667" y="145.33333333333334" width="72.66666666666667" height="72.66666666666667" fill="#ffffff"/><rect x="290.67" y="145.33" width="36.33" height="36.33" fill="#ffdee6"/><polygon points="327,145.33 327,181.66000000000003 290.67,181.66000000000003" fill="#4564e7"/><rect x="327" y="145.33" width="36.33" height="36.33" fill="#ff84a1"/><polygon points="327,145.33 363.33,181.66000000000003 327,181.66000000000003" fill="#ff6a8e"/><rect x="290.67" y="181.67" width="36.33" height="36.33" fill="#ffaec1"/><polygon points="290.67,181.67 327,181.67 290.67,218" fill="#edf0fd"/><rect x="327" y="181.67" width="36.33" height="36.33" fill="#fff7f9"/><polygon points="327,181.67 363.33,181.67 363.33,218" fill="#fdfdff"/><rect x="363.33333333333337" y="145.33333333333334" width="72.66666666666667" height="72.66666666666667" fill="#ffffff"/><rect x="363.33" y="145.33" width="36.33" height="36.33" fill="#859aef"/><polygon points="399.65999999999997,145.33 399.65999999999997,181.66000000000003 363.33,181.66000000000003" fill="#a1b1f3"/><rect x="399.67" y="145.33" width="36.33" height="36.33" fill="#c9d2f8"/><polygon points="399.67,145.33 436,181.66000000000003 399.67,181.66000000000003" fill="#ffbbcb"/><rect x="363.33" y="181.67" width="36.33" height="36.33" fill="#eceffd"/><polygon points="363.33,181.67 399.65999999999997,181.67 399.65999999999997,218" fill="#ffd2dd"/><rect x="399.67" y="181.67" width="36.33" height="36.33" fill="#4e6ce8"/><polygon points="399.67,181.67 436,181.67 399.67,218" fill="#c5cff7"/><rect x="436" y="145.33333333333334" width="72.66666666666667" height="72.66666666666667" fill="#ffffff"/><rect x="436" y="145.33" width="36.33" height="36.33" fill="#adbbf4"/><path d="M 436 181.66000000000003 A 36.33 36.33 0 0 1  472.33 145.33 L 472.33 181.66000000000003" fill="#4766e7"/><rect x="472.33" y="145.33" width="36.33" height="36.33" fill="#ff517b"/><path d="M 472.33 145.33 A 36.33 36.33 0 0 1 508.65999999999997 181.66000000000003 L 472.33 181.66000000000003" fill="#778eed"/><rect x="436" y="181.67" width="36.33" height="36.33" fill="#ff4672"/><path d="M 436 181.67 A 36.33 36.33 0 0 0 472.33 218 L 472.33 181.67" fill="#ff3968"/><rect x="472.33" y="181.67" width="36.33" height="36.33" fill="#bac5f6"/><path d="M 472.33 218 A 36.33 36.33 0 0 0 508.65999999999997 181.67 L 472.33 181.67" fill="#b4c1f5"/><rect x="508.67" y="145.33" width="72.67" height="72.67" fill="#ff5e85"/><rect x="508.67" y="145.33" width="72.67" height="72.67" fill="#e6ebfc"/><rect x="581.33" y="145.33" width="72.67" height="72.67" fill="#7a90ee"/><rect x="581.33" y="145.33" width="72.67" height="72.67" fill="#cad3f8"/><rect x="654" y="145.33" width="72.67" height="72.67" fill="#5774e9"/><polygon points="726.67,145.33 726.67,218 654,218" fill="#ffd9e2"/><rect x="726.6666666666667" y="145.33333333333334" width="72.66666666666667" height="72.66666666666667" fill="#ffffff"/><rect x="726.67" y="145.33" width="36.33" height="36.33" fill="#3658e5"/><circle cx="744.8349999999999" cy="163.495" r="18.165" fill="#b6c2f5"/><rect x="763" y="145.33" width="36.33" height="36.33" fill="#fff7f9"/><rect x="763" y="145.33" width="36.33" height="36.33" fill="#ff537c"/><rect x="726.67" y="181.67" width="36.33" height="36.33" fill="#ffa5bb"/><circle cx="744.8349999999999" cy="199.83499999999998" r="18.165" fill="#7289ed"/><rect x="763" y="181.67" width="36.33" height="36.33" fill="#ffc4d2"/><rect x="763" y="181.67" width="36.33" height="36.33" fill="#ff5880"/><rect x="0" y="218" width="72.66666666666667" height="72.66666666666667" fill="#ffffff"/><rect x="0" y="218" width="36.33" height="36.33" fill="#ff3e6c"/><path d="M 0 254.32999999999998 A 36.33 36.33 0 0 0 36.33 218 L 0 218" fill="#2348e2"/><rect x="36.33" y="218" width="36.33" height="36.33" fill="#1f44e2"/><path d="M 36.33 218 A 36.33 36.33 0 0 0 72.66 254.32999999999998 L 72.66 218" fill="#ffcfda"/><rect x="0" y="254.33" width="36.33" height="36.33" fill="#ff567e"/><path d="M 0 254.33 A 36.33 36.33 0 0 1 36.33 290.66 L 0 290.66" fill="#ff6489"/><rect x="36.33" y="254.33" width="36.33" height="36.33" fill="#ff97b0"/><path d="M 36.33 290.66 A 36.33 36.33 0 0 1  72.66 254.33 L 72.66 290.66" fill="#d8defa"/><rect x="72.67" y="218" width="72.67" height="72.67" fill="#ff557d"/><path d="M 72.67 218 A 72.67 72.67 0 0 1 145.34 290.67 L 72.67 290.67" fill="#d1d9f9"/><rect x="145.33" y="218" width="72.67" height="72.67" fill="#ff8aa6"/><polygon points="218,218 218,290.67 145.33,290.67" fill="#3e5fe6"/><rect x="218" y="218" width="72.67" height="72.67" fill="#eceffd"/><rect x="218" y="218" width="72.67" height="72.67" fill="#ff3968"/><rect x="290.6666666666667" y="218" width="72.66666666666667" height="72.66666666666667" fill="#ffffff"/><rect x="290.67" y="218" width="36.33" height="36.33" fill="#7088ec"/><polygon points="327,218 327,254.32999999999998 290.67,254.32999999999998" fill="#6e86ec"/><rect x="327" y="218" width="36.33" height="36.33" fill="#ffadc0"/><polygon points="327,218 363.33,254.32999999999998 327,254.32999999999998" fill="#dde3fb"/><rect x="290.67" y="254.33" width="36.33" height="36.33" fill="#ffe8ee"/><polygon points="290.67,254.33 327,254.33 327,290.66" fill="#ffd9e2"/><rect x="327" y="254.33" width="36.33" height="36.33" fill="#a2b2f3"/><polygon points="327,254.33 363.33,254.33 327,290.66" fill="#ffa5ba"/><rect x="363.33333333333337" y="218" width="72.66666666666667" height="72.66666666666667" fill="#ffffff"/><rect x="363.33" y="218" width="36.33" height="36.33" fill="#a1b1f3"/><path d="M 363.33 218 A 36.33 36.33 0 0 0 399.65999999999997 254.32999999999998 L 399.65999999999997 218" fill="#3a5ce5"/><rect x="399.67" y="218" width="36.33" height="36.33" fill="#7088ec"/><path d="M 399.67 254.32999999999998 A 36.33 36.33 0 0 0 436 218 L 399.67 218" fill="#ffcbd7"/><rect x="363.33" y="254.33" width="36.33" height="36.33" fill="#ffafc2"/><path d="M 363.33 290.66 A 36.33 36.33 0 0 1  399.65999999999997 254.33 L 399.65999999999997 290.66" fill="#4262e6"/><rect x="399.67" y="254.33" width="36.33" height="36.33" fill="#2d51e4"/><path d="M 399.67 254.33 A 36.33 36.33 0 0 1 436 290.66 L 399.67 290.66" fill="#fff7f9"/><rect x="436" y="218" width="72.66666666666667" height="72.66666666666667" fill="#ffffff"/><rect x="436" y="218" width="36.33" height="36.33" fill="#ff98b1"/><polygon points="472.33,218 472.33,254.32999999999998 436,254.32999999999998" fill="#2449e3"/><rect x="472.33" y="218" width="36.33" height="36.33" fill="#ff8fa9"/><polygon points="472.33,218 508.65999999999997,218 472.33,254.32999999999998" fill="#b7c3f6"/><rect x="436" y="254.33" width="36.33" height="36.33" fill="#ff3f6d"/><polygon points="436,254.33 472.33,254.33 472.33,290.66" fill="#ff567e"/><rect x="472.33" y="254.33" width="36.33" height="36.33" fill="#8297ef"/><polygon points="472.33,254.33 508.65999999999997,290.66 472.33,290.66" fill="#ff7596"/><rect x="508.67" y="218" width="72.67" height="72.67" fill="#e8ecfc"/><path d="M 508.67 290.67 A 72.67 72.67 0 0 0 581.34 218 L 508.67 218" fill="#b6c3f6"/><rect x="581.33" y="218" width="72.67" height="72.67" fill="#3053e4"/><rect x="581.33" y="218" width="72.67" height="72.67" fill="#ff537c"/><rect x="654" y="218" width="72.67" height="72.67" fill="#c9d2f8"/><rect x="654" y="218" width="72.67" height="72.67" fill="#516ee8"/><rect x="726.67" y="218" width="72.67" height="72.67" fill="#748ced"/><polygon points="799.3399999999999,218 799.3399999999999,290.67 726.67,290.67" fill="#3658e5"/><rect x="0" y="290.67" width="72.67" height="72.67" fill="#ffc5d3"/><rect x="0" y="290.67" width="72.67" height="72.67" fill="#ff6489"/><rect x="72.66666666666667" y="290.6666666666667" width="72.66666666666667" height="72.66666666666667" fill="#ffffff"/><rect x="72.67" y="290.67" width="36.33" height="36.33" fill="#ff3666"/><polygon points="109,290.67 109,327 72.67,327" fill="#ff3d6b"/><rect x="109" y="290.67" width="36.33" height="36.33" fill="#ffbccc"/><polygon points="109,290.67 145.32999999999998,327 109,327" fill="#ffabbf"/><rect x="72.67" y="327" width="36.33" height="36.33" fill="#ffcbd7"/><polygon points="72.67,327 109,327 72.67,363.33" fill="#ffd9e2"/><rect x="109" y="327" width="36.33" height="36.33" fill="#ffc1cf"/><polygon points="109,327 145.32999999999998,327 145.32999999999998,363.33" fill="#ff678b"/><rect x="145.33" y="290.67" width="72.67" height="72.67" fill="#ff86a2"/><rect x="145.33" y="290.67" width="72.67" height="72.67" fill="#4c6ae8"/><rect x="218" y="290.67" width="72.67" height="72.67" fill="#8b9ff0"/><polygon points="218,290.67 290.67,290.67 218,363.34000000000003" fill="#ff5f85"/><rect x="290.6666666666667" y="290.6666666666667" width="72.66666666666667" height="72.66666666666667" fill="#ffffff"/><rect x="290.67" y="290.67" width="36.33" height="36.33" fill="#ff92ac"/><polygon points="327,290.67 327,327 290.67,327" fill="#ff6a8d"/><rect x="327" y="290.67" width="36.33" height="36.33" fill="#9bacf2"/><polygon points="327,290.67 363.33,327 327,327" fill="#fffcfd"/><rect x="290.67" y="327" width="36.33" height="36.33" fill="#ff6489"/><polygon points="290.67,327 327,327 327,363.33" fill="#5874e9"/><rect x="327" y="327" width="36.33" height="36.33" fill="#fff1f4"/><polygon points="327,327 363.33,327 327,363.33" fill="#a1b1f3"/><rect x="363.33333333333337" y="290.6666666666667" width="72.66666666666667" height="72.66666666666667" fill="#ffffff"/><rect x="363.33" y="290.67" width="36.33" height="36.33" fill="#e2e7fb"/><path d="M 363.33 327 A 36.33 36.33 0 0 1  399.65999999999997 290.67 L 399.65999999999997 327" fill="#ff92ac"/><rect x="399.67" y="290.67" width="36.33" height="36.33" fill="#ffceda"/><path d="M 399.67 290.67 A 36.33 36.33 0 0 1 436 327 L 399.67 327" fill="#ced6f9"/><rect x="363.33" y="327" width="36.33" height="36.33" fill="#ff9eb5"/><path d="M 363.33 327 A 36.33 36.33 0 0 0 399.65999999999997 363.33 L 399.65999999999997 327" fill="#ff9eb5"/><rect x="399.67" y="327" width="36.33" height="36.33" fill="#657feb"/><path d="M 399.67 363.33 A 36.33 36.33 0 0 0 436 327 L 399.67 327" fill="#ff4c76"/><rect x="436" y="290.6666666666667" width="72.66666666666667" height="72.66666666666667" fill="#ffffff"/><rect x="436" y="290.67" width="36.33" height="36.33" fill="#758ded"/><polygon points="472.33,290.67 472.33,327 436,327" fill="#c8d1f8"/><rect x="472.33" y="290.67" width="36.33" height="36.33" fill="#ffd9e2"/><polygon points="472.33,290.67 508.65999999999997,290.67 472.33,327" fill="#4d6be8"/><rect x="436" y="327" width="36.33" height="36.33" fill="#c6cff8"/><polygon points="436,327 472.33,327 472.33,363.33" fill="#ff658a"/><rect x="472.33" y="327" width="36.33" height="36.33" fill="#f0f3fd"/><polygon points="472.33,327 508.65999999999997,363.33 472.33,363.33" fill="#8c9ff0"/><rect x="508.6666666666667" y="290.6666666666667" width="72.66666666666667" height="72.66666666666667" fill="#ffffff"/><rect x="508.67" y="290.67" width="36.33" height="36.33" fill="#ff7f9d"/><path d="M 508.67 290.67 A 36.33 36.33 0 0 0 545 327 L 545 290.67" fill="#bcc8f6"/><rect x="545" y="290.67" width="36.33" height="36.33" fill="#ffebf0"/><path d="M 545 327 A 36.33 36.33 0 0 0 581.33 290.67 L 545 290.67" fill="#ff688c"/><rect x="508.67" y="327" width="36.33" height="36.33" fill="#fafbfe"/><path d="M 508.67 363.33 A 36.33 36.33 0 0 1  545 327 L 545 363.33" fill="#4161e6"/><rect x="545" y="327" width="36.33" height="36.33" fill="#6f87ec"/><path d="M 545 327 A 36.33 36.33 0 0 1 581.33 363.33 L 545 363.33" fill="#ff567e"/><rect x="581.33" y="290.67" width="72.67" height="72.67" fill="#ffb7c8"/><polygon points="654,290.67 654,363.34000000000003 581.33,363.34000000000003" fill="#526fe9"/><rect x="654" y="290.6666666666667" width="72.66666666666667" height="72.66666666666667" fill="#ffffff"/><rect x="654" y="290.67" width="36.33" height="36.33" fill="#526fe9"/><path d="M 654 327 A 36.33 36.33 0 0 1 690.33 290.67 L 690.33 299.7525 A 27.2475 27.2475 0 0 0 663.0825 327" fill="#3e5fe6"/><rect x="690.33" y="290.67" width="36.33" height="36.33" fill="#fffafb"/><path d="M 690.33 290.67 A 36.33 36.33 0 0 1 726.6600000000001 327 L 717.5775 327 A 27.2475 27.2475 0 0 0 690.33 299.7525" fill="#889cf0"/><rect x="654" y="327" width="36.33" height="36.33" fill="#5774e9"/><path d="M 654 327 A 36.33 36.33 0 0 0 690.33 363.33 L 690.33 354.2475 A 27.2475 27.2475 0 0 1 663.0825 327" fill="#92a4f1"/><rect x="690.33" y="327" width="36.33" height="36.33" fill="#bfcaf7"/><path d="M 690.33 363.33 A 36.33 36.33 0 0 0 726.6600000000001 327 L 717.5775 327 A 27.2475 27.2475 0 0 1 690.33 354.2475" fill="#e1e6fb"/><rect x="726.67" y="290.67" width="72.67" height="72.67" fill="#ffd9e2"/><path d="M 726.67 290.67 A 72.67 72.67 0 0 1  799.3399999999999 363.34000000000003 L 726.67 290.67 A 72.67 72.67 0 0 0 799.3399999999999 363.34000000000003" fill="#7c92ee"/><rect x="0" y="363.33" width="72.67" height="72.67" fill="#4e6ce8"/><polygon points="0,363.33 72.67,363.33 72.67,436" fill="#8297ef"/><rect x="72.66666666666667" y="363.33333333333337" width="72.66666666666667" height="72.66666666666667" fill="#ffffff"/><rect x="72.67" y="363.33" width="36.33" height="36.33" fill="#4362e7"/><circle cx="90.83500000000001" cy="381.495" r="18.165" fill="#fffdfd"/><rect x="109" y="363.33" width="36.33" height="36.33" fill="#3255e4"/><rect x="109" y="363.33" width="36.33" height="36.33" fill="#90a3f1"/><rect x="72.67" y="399.67" width="36.33" height="36.33" fill="#fff2f5"/><circle cx="90.83500000000001" cy="417.83500000000004" r="18.165" fill="#ff84a1"/><rect x="109" y="399.67" width="36.33" height="36.33" fill="#ffb3c5"/><rect x="109" y="399.67" width="36.33" height="36.33" fill="#ff6e90"/><rect x="145.33" y="363.33" width="72.67" height="72.67" fill="#4b69e8"/><path d="M 145.33 436 A 72.67 72.67 0 0 0 218 363.33 L 145.33 363.33" fill="#ffb7c8"/><rect x="218" y="363.33333333333337" width="72.66666666666667" height="72.66666666666667" fill="#ffffff"/><rect x="218" y="363.33" width="36.33" height="36.33" fill="#3053e4"/><polygon points="254.32999999999998,363.33 254.32999999999998,399.65999999999997 218,399.65999999999997" fill="#fff8fa"/><rect x="254.33" y="363.33" width="36.33" height="36.33" fill="#e4e9fb"/><polygon points="254.33,363.33 290.66,399.65999999999997 254.33,399.65999999999997" fill="#ffafc2"/><rect x="218" y="399.67" width="36.33" height="36.33" fill="#ff4370"/><polygon points="218,399.67 254.32999999999998,399.67 218,436" fill="#ffb5c7"/><rect x="254.33" y="399.67" width="36.33" height="36.33" fill="#ff84a1"/><polygon points="254.33,399.67 290.66,399.67 290.66,436" fill="#eaeefc"/><rect x="290.67" y="363.33" width="72.67" height="72.67" fill="#2a4ee3"/><path d="M 290.67 436 A 72.67 72.67 0 0 1  363.34000000000003 363.33 L 290.67 436 A 72.67 72.67 0 0 0 363.34000000000003 363.33" fill="#7b91ee"/><rect x="363.33333333333337" y="363.33333333333337" width="72.66666666666667" height="72.66666666666667" fill="#ffffff"/><rect x="363.33" y="363.33" width="36.33" height="36.33" fill="#bec9f7"/><path d="M 363.33 363.33 A 36.33 36.33 0 0 1 399.65999999999997 399.65999999999997 L 363.33 399.65999999999997" fill="#ff97b0"/><rect x="399.67" y="363.33" width="36.33" height="36.33" fill="#fff7f9"/><path d="M 399.67 399.65999999999997 A 36.33 36.33 0 0 1  436 363.33 L 436 399.65999999999997" fill="#c2cdf7"/><rect x="363.33" y="399.67" width="36.33" height="36.33" fill="#ffebf0"/><path d="M 363.33 436 A 36.33 36.33 0 0 0 399.65999999999997 399.67 L 363.33 399.67" fill="#6f87ec"/><rect x="399.67" y="399.67" width="36.33" height="36.33" fill="#ff93ad"/><path d="M 399.67 399.67 A 36.33 36.33 0 0 0 436 436 L 436 399.67" fill="#4161e6"/><rect x="436" y="363.33" width="72.67" height="72.67" fill="#5d78ea"/><polygon points="436,363.33 508.67,363.33 508.67,436" fill="#ffa9bd"/><rect x="508.67" y="363.33" width="72.67" height="72.67" fill="#aebcf4"/><polygon points="581.34,363.33 581.34,436 508.67,436" fill="#ffa2b8"/><rect x="581.3333333333334" y="363.33333333333337" width="72.66666666666667" height="72.66666666666667" fill="#ffffff"/><rect x="581.33" y="363.33" width="36.33" height="36.33" fill="#ffbaca"/><path d="M 581.33 363.33 A 36.33 36.33 0 0 0 617.6600000000001 399.65999999999997 L 617.6600000000001 363.33" fill="#ff7999"/><rect x="617.67" y="363.33" width="36.33" height="36.33" fill="#ffdde5"/><path d="M 617.67 399.65999999999997 A 36.33 36.33 0 0 0 654 363.33 L 617.67 363.33" fill="#ff3565"/><rect x="581.33" y="399.67" width="36.33" height="36.33" fill="#b7c3f6"/><path d="M 581.33 436 A 36.33 36.33 0 0 1  617.6600000000001 399.67 L 617.6600000000001 436" fill="#657feb"/><rect x="617.67" y="399.67" width="36.33" height="36.33" fill="#97a8f1"/><path d="M 617.67 399.67 A 36.33 36.33 0 0 1 654 436 L 617.67 436" fill="#ffdbe4"/><rect x="654" y="363.33" width="72.67" height="72.67" fill="#ffacc0"/><polygon points="654,363.33 726.67,436 654,436" fill="#e4e9fc"/><rect x="726.67" y="363.33" width="72.67" height="72.67" fill="#627deb"/><rect x="726.67" y="363.33" width="72.67" height="72.67" fill="#ff9fb5"/></g></svg>