<?xml version="1.0" standalone="no"?><svg xmlns:xlink="http://www.w3.org/1999/xlink" xmlns="http://www.w3.org/2000/svg" viewBox="0 0 1000 545.454859295086" preserveAspectRatio="xMaxYMax slice"><g transform="scale(1.7261229724528036)"><rect x="0" y="0" width="579.3333333333333" height="316" fill="#3b3b3b"/><rect x="0" y="0" width="52.666666666666664" height="52.666666666666664" fill="#3b3b3b"/><rect x="0" y="0" width="26.33" height="26.33" fill="#336353"/><polygon points="26.33,0 26.33,26.33 0,26.33" fill="#29916e"/><rect x="26.33" y="0" width="26.33" height="26.33" fill="#394541"/><polygon points="26.33,0 52.66,26.33 26.33,26.33" fill="#5d4249"/><rect x="0" y="26.33" width="26.33" height="26.33" fill="#23ac7f"/><polygon points="0,26.33 26.33,26.33 0,52.66" fill="#d05c77"/><rect x="26.33" y="26.33" width="26.33" height="26.33" fill="#326554"/><polygon points="26.33,26.33 52.66,26.33 52.66,52.66" fill="#584147"/><rect x="52.67" y="0" width="52.67" height="52.67" fill="#2b896a"/><polygon points="52.67,0 105.34,0 52.67,52.67" fill="#cd5b76"/><rect x="105.33" y="0" width="52.67" height="52.67" fill="#a15164"/><path d="M 105.33 0 A 52.67 52.67 0 0 0 158 52.67 L 158 0" fill="#d45d79"/><rect x="158" y="0" width="52.666666666666664" height="52.666666666666664" fill="#3b3b3b"/><rect x="158" y="0" width="26.33" height="26.33" fill="#b2556b"/><polygon points="184.32999999999998,0 184.32999999999998,26.33 158,26.33" fill="#3e3c3c"/><rect x="184.33" y="0" width="26.33" height="26.33" fill="#1ec38d"/><polygon points="184.33,0 210.66000000000003,26.33 184.33,26.33" fill="#7f4a56"/><rect x="158" y="26.33" width="26.33" height="26.33" fill="#9b5062"/><polygon points="158,26.33 184.32999999999998,26.33 158,52.66" fill="#35594d"/><rect x="184.33" y="26.33" width="26.33" height="26.33" fill="#345a4e"/><polygon points="184.33,26.33 210.66000000000003,26.33 210.66000000000003,52.66" fill="#35574c"/><rect x="210.67" y="0" width="52.67" height="52.67" fill="#1cd094"/><rect x="210.67" y="0" width="52.67" height="52.67" fill="#1ec68f"/><rect x="263.3333333333333" y="0" width="52.666666666666664" height="52.666666666666664" fill="#3b3b3b"/><rect x="263.33" y="0" width="26.33" height="26.33" fill="#35584c"/><circle cx="276.495" cy="13.165" r="13.165" fill="#2d7c62"/><rect x="289.67" y="0" width="26.33" height="26.33" fill="#3d3c3c"/><rect x="289.67" y="0" width="26.33" height="26.33" fill="#e15f7e"/><rect x="263.33" y="26.33" width="26.33" height="26.33" fill="#279873"/><circle cx="276.495" cy="39.495" r="13.165" fill="#1bd597"/><rect x="289.67" y="26.33" width="26.33" height="26.33" fill="#6a454e"/><rect x="289.67" y="26.33" width="26.33" height="26.33" fill="#299370"/><rect x="316" y="0" width="52.67" height="52.67" fill="#22b182"/><polygon points="316,0 368.67,0 368.67,52.67" fill="#355a4e"/><rect x="368.66666666666663" y="0" width="52.666666666666664" height="52.666666666666664" fill="#3b3b3b"/><rect x="368.67" y="0" width="26.33" height="26.33" fill="#24a97d"/><polygon points="395,0 395,26.33 368.67,26.33" fill="#e76180"/><rect x="395" y="0" width="26.33" height="26.33" fill="#3c3b3b"/><polygon points="395,0 421.33,26.33 395,26.33" fill="#4c3f42"/><rect x="368.67" y="26.33" width="26.33" height="26.33" fill="#1ad698"/><polygon points="368.67,26.33 395,26.33 368.67,52.66" fill="#463d3f"/><rect x="395" y="26.33" width="26.33" height="26.33" fill="#1dcc92"/><polygon points="395,26.33 421.33,26.33 421.33,52.66" fill="#289370"/><rect x="421.33" y="0" width="52.67" height="52.67" fill="#19dc9c"/><rect x="421.33" y="0" width="52.67" height="52.67" fill="#36554a"/><rect x="474" y="0" width="52.67" height="52.67" fill="#534045"/><path d="M 474 0 A 52.67 52.67 0 0 1 526.67 52.67 L 474 52.67" fill="#1cce93"/><rect x="526.6666666666666" y="0" width="52.666666666666664" height="52.666666666666664" fill="#3b3b3b"/><rect x="526.67" y="0" width="26.33" height="26.33" fill="#c85a74"/><path d="M 526.67 26.33 A 26.33 26.33 0 0 1 553 0 L 553 6.5825 A 19.7475 19.7475 0 0 0 533.2524999999999 26.33" fill="#24ab7e"/><rect x="553" y="0" width="26.33" height="26.33" fill="#25a47a"/><path d="M 553 0 A 26.33 26.33 0 0 1 579.33 26.33 L 572.7475 26.33 A 19.7475 19.7475 0 0 0 553 6.5825" fill="#24a97d"/><rect x="526.67" y="26.33" width="26.33" height="26.33" fill="#23ac7f"/><path d="M 526.67 26.33 A 26.33 26.33 0 0 0 553 52.66 L 553 46.0775 A 19.7475 19.7475 0 0 1 533.2524999999999 26.33" fill="#483e40"/><rect x="553" y="26.33" width="26.33" height="26.33" fill="#e76180"/><path d="M 553 52.66 A 26.33 26.33 0 0 0 579.33 26.33 L 572.7475 26.33 A 19.7475 19.7475 0 0 1 553 46.0775" fill="#1cce93"/><rect x="0" y="52.67" width="52.67" height="52.67" fill="#ed6283"/><rect x="0" y="52.67" width="52.67" height="52.67" fill="#19dd9c"/><rect x="52.67" y="52.67" width="52.67" height="52.67" fill="#9e5163"/><rect x="52.67" y="52.67" width="52.67" height="52.67" fill="#f86587"/><rect x="105.33" y="52.67" width="52.67" height="52.67" fill="#3c3b3b"/><path d="M 105.33 105.34 A 52.67 52.67 0 0 1  158 52.67 L 158 105.34" fill="#384a44"/><rect x="158" y="52.67" width="52.67" height="52.67" fill="#eb6282"/><rect x="158" y="52.67" width="52.67" height="52.67" fill="#e66180"/><rect x="210.67" y="52.67" width="52.67" height="52.67" fill="#18e19f"/><polygon points="263.34,52.67 263.34,105.34 210.67,105.34" fill="#23ad7f"/><rect x="263.33" y="52.67" width="52.67" height="52.67" fill="#26a078"/><polygon points="263.33,52.67 316,52.67 263.33,105.34" fill="#1bd597"/><rect x="316" y="52.666666666666664" width="52.666666666666664" height="52.666666666666664" fill="#3b3b3b"/><rect x="316" y="52.67" width="26.33" height="26.33" fill="#864b59"/><polygon points="342.33,52.67 342.33,79 316,79" fill="#26a077"/><rect x="342.33" y="52.67" width="26.33" height="26.33" fill="#c25971"/><polygon points="342.33,52.67 368.65999999999997,52.67 342.33,79" fill="#1fc28c"/><rect x="316" y="79" width="26.33" height="26.33" fill="#2d7c62"/><polygon points="316,79 342.33,79 342.33,105.33" fill="#21b886"/><rect x="342.33" y="79" width="26.33" height="26.33" fill="#b1556b"/><polygon points="342.33,79 368.65999999999997,105.33 342.33,105.33" fill="#964f5f"/><rect x="368.67" y="52.67" width="52.67" height="52.67" fill="#25a57b"/><rect x="368.67" y="52.67" width="52.67" height="52.67" fill="#2a8a6a"/><rect x="421.33" y="52.67" width="52.67" height="52.67" fill="#a55266"/><polygon points="421.33,52.67 474,105.34 421.33,105.34" fill="#316a57"/><rect x="474" y="52.666666666666664" width="52.666666666666664" height="52.666666666666664" fill="#3b3b3b"/><rect x="474" y="52.67" width="26.33" height="26.33" fill="#22b282"/><polygon points="500.33,52.67 500.33,79 474,79" fill="#714751"/><rect x="500.33" y="52.67" width="26.33" height="26.33" fill="#2a8c6c"/><polygon points="500.33,52.67 526.66,79 500.33,79" fill="#2e7b61"/><rect x="474" y="79" width="26.33" height="26.33" fill="#dc5e7c"/><polygon points="474,79 500.33,79 500.33,105.33" fill="#413c3d"/><rect x="500.33" y="79" width="26.33" height="26.33" fill="#20bd89"/><polygon points="500.33,79 526.66,79 500.33,105.33" fill="#d45d79"/><rect x="526.67" y="52.67" width="52.67" height="52.67" fill="#289571"/><path d="M 526.67 105.34 A 52.67 52.67 0 0 1  579.3399999999999 52.67 L 579.3399999999999 105.34" fill="#1dcc92"/><rect x="0" y="105.33333333333333" width="52.666666666666664" height="52.666666666666664" fill="#3b3b3b"/><rect x="0" y="105.33" width="26.33" height="26.33" fill="#36554a"/><polygon points="26.33,105.33 26.33,131.66 0,131.66" fill="#a85367"/><rect x="26.33" y="105.33" width="26.33" height="26.33" fill="#2a8c6c"/><polygon points="26.33,105.33 52.66,105.33 26.33,131.66" fill="#24a97d"/><rect x="0" y="131.67" width="26.33" height="26.33" fill="#1adb9b"/><polygon points="0,131.67 26.33,131.67 26.33,158" fill="#dc5e7c"/><rect x="26.33" y="131.67" width="26.33" height="26.33" fill="#764853"/><polygon points="26.33,131.67 52.66,158 26.33,158" fill="#384b45"/><rect x="52.67" y="105.33" width="52.67" height="52.67" fill="#a05164"/><path d="M 52.67 158 A 52.67 52.67 0 0 1  105.34 105.33 L 52.67 158 A 52.67 52.67 0 0 0 105.34 105.33" fill="#7b4955"/><rect x="105.33333333333333" y="105.33333333333333" width="52.666666666666664" height="52.666666666666664" fill="#3b3b3b"/><rect x="105.33" y="105.33" width="26.33" height="26.33" fill="#b9576e"/><path d="M 105.33 131.66 A 26.33 26.33 0 0 1  131.66 105.33 L 131.66 131.66" fill="#5c4248"/><rect x="131.67" y="105.33" width="26.33" height="26.33" fill="#cd5b76"/><path d="M 131.67 105.33 A 26.33 26.33 0 0 1 158 131.66 L 131.67 131.66" fill="#874c5a"/><rect x="105.33" y="131.67" width="26.33" height="26.33" fill="#a65366"/><path d="M 105.33 131.67 A 26.33 26.33 0 0 0 131.66 158 L 131.66 131.67" fill="#1dcc92"/><rect x="131.67" y="131.67" width="26.33" height="26.33" fill="#bb576f"/><path d="M 131.67 158 A 26.33 26.33 0 0 0 158 131.67 L 131.67 131.67" fill="#a65366"/><rect x="158" y="105.33333333333333" width="52.666666666666664" height="52.666666666666664" fill="#3b3b3b"/><rect x="158" y="105.33" width="26.33" height="26.33" fill="#874c5a"/><polygon points="184.32999999999998,105.33 184.32999999999998,131.66 158,131.66" fill="#2c8467"/><rect x="184.33" y="105.33" width="26.33" height="26.33" fill="#9a5061"/><polygon points="184.33,105.33 210.66000000000003,131.66 184.33,131.66" fill="#6a454e"/><rect x="158" y="131.67" width="26.33" height="26.33" fill="#413c3d"/><polygon points="158,131.67 184.32999999999998,131.67 184.32999999999998,158" fill="#2c8366"/><rect x="184.33" y="131.67" width="26.33" height="26.33" fill="#8f4d5d"/><polygon points="184.33,131.67 210.66000000000003,131.67 184.33,158" fill="#ea6282"/><rect x="210.66666666666666" y="105.33333333333333" width="52.666666666666664" height="52.666666666666664" fill="#3b3b3b"/><rect x="210.67" y="105.33" width="26.33" height="26.33" fill="#3a3f3d"/><polygon points="237,105.33 237,131.66 210.67,131.66" fill="#63444b"/><rect x="237" y="105.33" width="26.33" height="26.33" fill="#dd5f7c"/><polygon points="237,105.33 263.33,131.66 237,131.66" fill="#29916e"/><rect x="210.67" y="131.67" width="26.33" height="26.33" fill="#3a3f3d"/><polygon points="210.67,131.67 237,131.67 210.67,158" fill="#19de9c"/><rect x="237" y="131.67" width="26.33" height="26.33" fill="#26a078"/><polygon points="237,131.67 263.33,131.67 263.33,158" fill="#23ac7f"/><rect x="263.33" y="105.33" width="52.67" height="52.67" fill="#25a67b"/><polygon points="263.33,105.33 316,105.33 316,158" fill="#784854"/><rect x="316" y="105.33333333333333" width="52.666666666666664" height="52.666666666666664" fill="#3b3b3b"/><rect x="316" y="105.33" width="26.33" height="26.33" fill="#5b4248"/><polygon points="342.33,105.33 342.33,131.66 316,131.66" fill="#d05c77"/><rect x="342.33" y="105.33" width="26.33" height="26.33" fill="#345c4f"/><polygon points="342.33,105.33 368.65999999999997,131.66 342.33,131.66" fill="#24a87c"/><rect x="316" y="131.67" width="26.33" height="26.33" fill="#fd6689"/><polygon points="316,131.67 342.33,131.67 342.33,158" fill="#29906e"/><rect x="342.33" y="131.67" width="26.33" height="26.33" fill="#b8566d"/><polygon points="342.33,131.67 368.65999999999997,131.67 342.33,158" fill="#cd5b76"/><rect x="368.66666666666663" y="105.33333333333333" width="52.666666666666664" height="52.666666666666664" fill="#3b3b3b"/><rect x="368.67" y="105.33" width="26.33" height="26.33" fill="#824b58"/><polygon points="395,105.33 395,131.66 368.67,131.66" fill="#384b45"/><rect x="395" y="105.33" width="26.33" height="26.33" fill="#36544a"/><polygon points="395,105.33 421.33,131.66 395,131.66" fill="#7b4955"/><rect x="368.67" y="131.67" width="26.33" height="26.33" fill="#da5e7b"/><polygon points="368.67,131.67 395,131.67 368.67,158" fill="#794854"/><rect x="395" y="131.67" width="26.33" height="26.33" fill="#814a57"/><polygon points="395,131.67 421.33,131.67 421.33,158" fill="#764853"/><rect x="421.33" y="105.33" width="52.67" height="52.67" fill="#714751"/><path d="M 421.33 105.33 A 52.67 52.67 0 0 1  474 158 L 421.33 105.33 A 52.67 52.67 0 0 0 474 158" fill="#1fc18b"/><rect x="474" y="105.33333333333333" width="52.666666666666664" height="52.666666666666664" fill="#3b3b3b"/><rect x="474" y="105.33" width="26.33" height="26.33" fill="#306f5a"/><polygon points="500.33,105.33 500.33,131.66 474,131.66" fill="#423c3e"/><rect x="500.33" y="105.33" width="26.33" height="26.33" fill="#316d59"/><polygon points="500.33,105.33 526.66,131.66 500.33,131.66" fill="#463d40"/><rect x="474" y="131.67" width="26.33" height="26.33" fill="#345b4e"/><polygon points="474,131.67 500.33,131.67 500.33,158" fill="#7f4a56"/><rect x="500.33" y="131.67" width="26.33" height="26.33" fill="#1ada9a"/><polygon points="500.33,131.67 526.66,131.67 500.33,158" fill="#384b44"/><rect x="526.67" y="105.33" width="52.67" height="52.67" fill="#289370"/><rect x="526.67" y="105.33" width="52.67" height="52.67" fill="#4a3e41"/><rect x="0" y="158" width="52.67" height="52.67" fill="#326453"/><rect x="0" y="158" width="52.67" height="52.67" fill="#384843"/><rect x="52.666666666666664" y="158" width="52.666666666666664" height="52.666666666666664" fill="#3b3b3b"/><rect x="52.67" y="158" width="26.33" height="26.33" fill="#cd5b76"/><circle cx="65.83500000000001" cy="171.165" r="13.165" fill="#269f77"/><rect x="79" y="158" width="26.33" height="26.33" fill="#ad5469"/><rect x="79" y="158" width="26.33" height="26.33" fill="#cc5b76"/><rect x="52.67" y="184.33" width="26.33" height="26.33" fill="#4a3e41"/><circle cx="65.83500000000001" cy="197.495" r="13.165" fill="#ce5b76"/><rect x="79" y="184.33" width="26.33" height="26.33" fill="#f66486"/><rect x="79" y="184.33" width="26.33" height="26.33" fill="#8d4d5c"/><rect x="105.33" y="158" width="52.67" height="52.67" fill="#954f5f"/><path d="M 105.33 210.67000000000002 A 52.67 52.67 0 0 1  158 158 L 158 210.67000000000002" fill="#744852"/><rect x="158" y="158" width="52.666666666666664" height="52.666666666666664" fill="#3b3b3b"/><rect x="158" y="158" width="26.33" height="26.33" fill="#dc5e7c"/><polygon points="184.32999999999998,158 184.32999999999998,184.32999999999998 158,184.32999999999998" fill="#413c3d"/><rect x="184.33" y="158" width="26.33" height="26.33" fill="#403c3d"/><polygon points="184.33,158 210.66000000000003,184.32999999999998 184.33,184.32999999999998" fill="#934e5f"/><rect x="158" y="184.33" width="26.33" height="26.33" fill="#23ac7f"/><polygon points="158,184.33 184.32999999999998,184.33 158,210.66000000000003" fill="#1ad99a"/><rect x="184.33" y="184.33" width="26.33" height="26.33" fill="#974f60"/><polygon points="184.33,184.33 210.66000000000003,184.33 210.66000000000003,210.66000000000003" fill="#1dcb91"/><rect x="210.67" y="158" width="52.67" height="52.67" fill="#4a3e41"/><polygon points="263.34,158 263.34,210.67000000000002 210.67,210.67000000000002" fill="#984f60"/><rect x="263.33" y="158" width="52.67" height="52.67" fill="#25a67b"/><polygon points="263.33,158 316,158 263.33,210.67000000000002" fill="#30705a"/><rect x="316" y="158" width="52.666666666666664" height="52.666666666666664" fill="#3b3b3b"/><rect x="316" y="158" width="26.33" height="26.33" fill="#7f4a56"/><polygon points="342.33,158 342.33,184.32999999999998 316,184.32999999999998" fill="#29916f"/><rect x="342.33" y="158" width="26.33" height="26.33" fill="#374d46"/><polygon points="342.33,158 368.65999999999997,158 342.33,184.32999999999998" fill="#7a4954"/><rect x="316" y="184.33" width="26.33" height="26.33" fill="#724751"/><polygon points="316,184.33 342.33,184.33 342.33,210.66000000000003" fill="#804a57"/><rect x="342.33" y="184.33" width="26.33" height="26.33" fill="#2b896a"/><polygon points="342.33,184.33 368.65999999999997,210.66000000000003 342.33,210.66000000000003" fill="#5c4248"/><rect x="368.66666666666663" y="158" width="52.666666666666664" height="52.666666666666664" fill="#3b3b3b"/><rect x="368.67" y="158" width="26.33" height="26.33" fill="#db5e7b"/><path d="M 368.67 184.32999999999998 A 26.33 26.33 0 0 1 395 158 L 395 164.5825 A 19.7475 19.7475 0 0 0 375.2525 184.32999999999998" fill="#e5607f"/><rect x="395" y="158" width="26.33" height="26.33" fill="#1ad799"/><path d="M 395 158 A 26.33 26.33 0 0 1 421.33 184.32999999999998 L 414.7475 184.32999999999998 A 19.7475 19.7475 0 0 0 395 164.5825" fill="#64444c"/><rect x="368.67" y="184.33" width="26.33" height="26.33" fill="#ec6282"/><path d="M 368.67 184.33 A 26.33 26.33 0 0 0 395 210.66000000000003 L 395 204.07750000000001 A 19.7475 19.7475 0 0 1 375.2525 184.33" fill="#413c3e"/><rect x="395" y="184.33" width="26.33" height="26.33" fill="#24a97d"/><path d="M 395 210.66000000000003 A 26.33 26.33 0 0 0 421.33 184.33 L 414.7475 184.33 A 19.7475 19.7475 0 0 1 395 204.07750000000001" fill="#d35c78"/><rect x="421.33" y="158" width="52.67" height="52.67" fill="#834b58"/><polygon points="421.33,158 474,210.67000000000002 421.33,210.67000000000002" fill="#4a3e41"/><rect x="474" y="158" width="52.666666666666664" height="52.666666666666664" fill="#3b3b3b"/><rect x="474" y="158" width="26.33" height="26.33" fill="#279c75"/><path d="M 474 158 A 26.33 26.33 0 0 0 500.33 184.32999999999998 L 500.33 158" fill="#23af80"/><rect x="500.33" y="158" width="26.33" height="26.33" fill="#35574c"/><path d="M 500.33 184.32999999999998 A 26.33 26.33 0 0 0 526.66 158 L 500.33 158" fill="#9d5062"/><rect x="474" y="184.33" width="26.33" height="26.33" fill="#a65366"/><path d="M 474 210.66000000000003 A 26.33 26.33 0 0 1  500.33 184.33 L 500.33 210.66000000000003" fill="#1dc990"/><rect x="500.33" y="184.33" width="26.33" height="26.33" fill="#22b383"/><path d="M 500.33 184.33 A 26.33 26.33 0 0 1 526.66 210.66000000000003 L 500.33 210.66000000000003" fill="#24aa7e"/><rect x="526.67" y="158" width="52.67" height="52.67" fill="#c95a74"/><polygon points="526.67,158 579.3399999999999,210.67000000000002 526.67,210.67000000000002" fill="#336152"/><rect x="0" y="210.67" width="52.67" height="52.67" fill="#24ab7e"/><polygon points="0,210.67 52.67,210.67 52.67,263.34" fill="#2d7d62"/><rect x="52.67" y="210.67" width="52.67" height="52.67" fill="#eb6282"/><polygon points="52.67,210.67 105.34,210.67 105.34,263.34" fill="#2c8366"/><rect x="105.33" y="210.67" width="52.67" height="52.67" fill="#724751"/><rect x="105.33" y="210.67" width="52.67" height="52.67" fill="#35564b"/><rect x="158" y="210.67" width="52.67" height="52.67" fill="#26a077"/><path d="M 158 263.34 A 52.67 52.67 0 0 0 210.67000000000002 210.67 L 158 210.67" fill="#365249"/><rect x="210.67" y="210.67" width="52.67" height="52.67" fill="#bf5870"/><path d="M 210.67 210.67 A 52.67 52.67 0 0 1 263.34 263.34 L 210.67 263.34" fill="#2c8265"/><rect x="263.3333333333333" y="210.66666666666666" width="52.666666666666664" height="52.666666666666664" fill="#3b3b3b"/><rect x="263.33" y="210.67" width="26.33" height="26.33" fill="#335f51"/><path d="M 263.33 237 A 26.33 26.33 0 0 0 289.65999999999997 210.67 L 263.33 210.67" fill="#66444c"/><rect x="289.67" y="210.67" width="26.33" height="26.33" fill="#384944"/><path d="M 289.67 210.67 A 26.33 26.33 0 0 0 316 237 L 316 210.67" fill="#316d59"/><rect x="263.33" y="237" width="26.33" height="26.33" fill="#1ccf94"/><path d="M 263.33 237 A 26.33 26.33 0 0 1 289.65999999999997 263.33 L 263.33 263.33" fill="#6e464f"/><rect x="289.67" y="237" width="26.33" height="26.33" fill="#4d3f42"/><path d="M 289.67 263.33 A 26.33 26.33 0 0 1  316 237 L 316 263.33" fill="#504044"/><rect x="316" y="210.66666666666666" width="52.666666666666664" height="52.666666666666664" fill="#3b3b3b"/><rect x="316" y="210.67" width="26.33" height="26.33" fill="#394742"/><path d="M 316 210.67 A 26.33 26.33 0 0 0 342.33 237 L 342.33 210.67" fill="#316a57"/><rect x="342.33" y="210.67" width="26.33" height="26.33" fill="#25a279"/><path d="M 342.33 237 A 26.33 26.33 0 0 0 368.65999999999997 210.67 L 342.33 210.67" fill="#65444c"/><rect x="316" y="237" width="26.33" height="26.33" fill="#9f5163"/><path d="M 316 263.33 A 26.33 26.33 0 0 1  342.33 237 L 342.33 263.33" fill="#574146"/><rect x="342.33" y="237" width="26.33" height="26.33" fill="#2a8e6d"/><path d="M 342.33 237 A 26.33 26.33 0 0 1 368.65999999999997 263.33 L 342.33 263.33" fill="#f06384"/><rect x="368.66666666666663" y="210.66666666666666" width="52.666666666666664" height="52.666666666666664" fill="#3b3b3b"/><rect x="368.67" y="210.67" width="26.33" height="26.33" fill="#e66180"/><path d="M 368.67 237 A 26.33 26.33 0 0 1  395 210.67 L 395 237" fill="#f46485"/><rect x="395" y="210.67" width="26.33" height="26.33" fill="#844b58"/><path d="M 395 210.67 A 26.33 26.33 0 0 1 421.33 237 L 395 237" fill="#3e3c3c"/><rect x="368.67" y="237" width="26.33" height="26.33" fill="#b3556b"/><path d="M 368.67 237 A 26.33 26.33 0 0 0 395 263.33 L 395 237" fill="#be5870"/><rect x="395" y="237" width="26.33" height="26.33" fill="#1bd396"/><path d="M 395 263.33 A 26.33 26.33 0 0 0 421.33 237 L 395 237" fill="#f56486"/><rect x="421.3333333333333" y="210.66666666666666" width="52.666666666666664" height="52.666666666666664" fill="#3b3b3b"/><rect x="421.33" y="210.67" width="26.33" height="26.33" fill="#36544a"/><polygon points="447.65999999999997,210.67 447.65999999999997,237 421.33,237" fill="#289672"/><rect x="447.67" y="210.67" width="26.33" height="26.33" fill="#443d3f"/><polygon points="447.67,210.67 474,237 447.67,237" fill="#1bd296"/><rect x="421.33" y="237" width="26.33" height="26.33" fill="#fa6588"/><polygon points="421.33,237 447.65999999999997,237 447.65999999999997,263.33" fill="#1dca91"/><rect x="447.67" y="237" width="26.33" height="26.33" fill="#1bd698"/><polygon points="447.67,237 474,237 447.67,263.33" fill="#2a8e6d"/><rect x="474" y="210.67" width="52.67" height="52.67" fill="#1ec68e"/><rect x="474" y="210.67" width="52.67" height="52.67" fill="#67454d"/><rect x="526.67" y="210.67" width="52.67" height="52.67" fill="#3a423f"/><path d="M 526.67 263.34 A 52.67 52.67 0 0 0 579.3399999999999 210.67 L 526.67 210.67" fill="#19de9d"/><rect x="0" y="263.3333333333333" width="52.666666666666664" height="52.666666666666664" fill="#3b3b3b"/><rect x="0" y="263.33" width="26.33" height="26.33" fill="#336253"/><path d="M 0 289.65999999999997 A 26.33 26.33 0 0 1 26.33 263.33 L 26.33 269.91249999999997 A 19.7475 19.7475 0 0 0 6.5825 289.65999999999997" fill="#f76487"/><rect x="26.33" y="263.33" width="26.33" height="26.33" fill="#d05c77"/><path d="M 26.33 263.33 A 26.33 26.33 0 0 1 52.66 289.65999999999997 L 46.0775 289.65999999999997 A 19.7475 19.7475 0 0 0 26.33 269.91249999999997" fill="#f46486"/><rect x="0" y="289.67" width="26.33" height="26.33" fill="#394642"/><path d="M 0 289.67 A 26.33 26.33 0 0 0 26.33 316 L 26.33 309.4175 A 19.7475 19.7475 0 0 1 6.5825 289.67" fill="#19df9d"/><rect x="26.33" y="289.67" width="26.33" height="26.33" fill="#7d4956"/><path d="M 26.33 316 A 26.33 26.33 0 0 0 52.66 289.67 L 46.0775 289.67 A 19.7475 19.7475 0 0 1 26.33 309.4175" fill="#6e4650"/><rect x="52.67" y="263.33" width="52.67" height="52.67" fill="#336051"/><path d="M 52.67 263.33 A 52.67 52.67 0 0 1  105.34 316 L 52.67 263.33 A 52.67 52.67 0 0 0 105.34 316" fill="#62444b"/><rect x="105.33" y="263.33" width="52.67" height="52.67" fill="#24a97d"/><path d="M 105.33 263.33 A 52.67 52.67 0 0 1  158 316 L 105.33 263.33 A 52.67 52.67 0 0 0 158 316" fill="#a85367"/><rect x="158" y="263.33" width="52.67" height="52.67" fill="#35564b"/><path d="M 158 263.33 A 52.67 52.67 0 0 0 210.67000000000002 316 L 210.67000000000002 263.33" fill="#384843"/><rect x="210.67" y="263.33" width="52.67" height="52.67" fill="#23ac7f"/><rect x="210.67" y="263.33" width="52.67" height="52.67" fill="#fc6589"/><rect x="263.3333333333333" y="263.3333333333333" width="52.666666666666664" height="52.666666666666664" fill="#3b3b3b"/><rect x="263.33" y="263.33" width="26.33" height="26.33" fill="#c25971"/><circle cx="276.495" cy="276.495" r="13.165" fill="#1bd597"/><rect x="289.67" y="263.33" width="26.33" height="26.33" fill="#5f4349"/><rect x="289.67" y="263.33" width="26.33" height="26.33" fill="#20bd89"/><rect x="263.33" y="289.67" width="26.33" height="26.33" fill="#20ba87"/><circle cx="276.495" cy="302.83500000000004" r="13.165" fill="#824a57"/><rect x="289.67" y="289.67" width="26.33" height="26.33" fill="#24ab7e"/><rect x="289.67" y="289.67" width="26.33" height="26.33" fill="#493e41"/><rect x="316" y="263.3333333333333" width="52.666666666666664" height="52.666666666666664" fill="#3b3b3b"/><rect x="316" y="263.33" width="26.33" height="26.33" fill="#ad5469"/><polygon points="342.33,263.33 342.33,289.65999999999997 316,289.65999999999997" fill="#764853"/><rect x="342.33" y="263.33" width="26.33" height="26.33" fill="#25a47a"/><polygon points="342.33,263.33 368.65999999999997,263.33 342.33,289.65999999999997" fill="#3b3b3b"/><rect x="316" y="289.67" width="26.33" height="26.33" fill="#8c4d5c"/><polygon points="316,289.67 342.33,289.67 342.33,316" fill="#25a379"/><rect x="342.33" y="289.67" width="26.33" height="26.33" fill="#fc6589"/><polygon points="342.33,289.67 368.65999999999997,316 342.33,316" fill="#c55973"/><rect x="368.67" y="263.33" width="52.67" height="52.67" fill="#345a4e"/><polygon points="368.67,263.33 421.34000000000003,316 368.67,316" fill="#c35972"/><rect x="421.3333333333333" y="263.3333333333333" width="52.666666666666664" height="52.666666666666664" fill="#3b3b3b"/><rect x="421.33" y="263.33" width="26.33" height="26.33" fill="#b9576e"/><path d="M 421.33 289.65999999999997 A 26.33 26.33 0 0 1 447.65999999999997 263.33 L 447.65999999999997 269.91249999999997 A 19.7475 19.7475 0 0 0 427.91249999999997 289.65999999999997" fill="#3b3b3b"/><rect x="447.67" y="263.33" width="26.33" height="26.33" fill="#974f60"/><path d="M 447.67 263.33 A 26.33 26.33 0 0 1 474 289.65999999999997 L 467.4175 289.65999999999997 A 19.7475 19.7475 0 0 0 447.67 269.91249999999997" fill="#f26385"/><rect x="421.33" y="289.67" width="26.33" height="26.33" fill="#ff668a"/><path d="M 421.33 289.67 A 26.33 26.33 0 0 0 447.65999999999997 316 L 447.65999999999997 309.4175 A 19.7475 19.7475 0 0 1 427.91249999999997 289.67" fill="#3b3b3b"/><rect x="447.67" y="289.67" width="26.33" height="26.33" fill="#345c4f"/><path d="M 447.67 316 A 26.33 26.33 0 0 0 474 289.67 L 467.4175 289.67 A 19.7475 19.7475 0 0 1 447.67 309.4175" fill="#f66486"/><rect x="474" y="263.33" width="52.67" height="52.67" fill="#30705b"/><polygon points="526.67,263.33 526.67,316 474,316" fill="#984f60"/><rect x="526.67" y="263.33" width="52.67" height="52.67" fill="#8c4d5c"/><rect x="526.67" y="263.33" width="52.67" height="52.67" fill="#64444c"/></g></svg>