<?xml version="1.0" standalone="no"?><svg xmlns:xlink="http://www.w3.org/1999/xlink" xmlns="http://www.w3.org/2000/svg" viewBox="0 0 1000 1200.0015189892645" preserveAspectRatio="xMaxYMax slice"><g transform="scale(3.7974731613584316)"><rect x="0" y="0" width="263.3333333333333" height="316" fill="#ECB365"/><rect x="0" y="0" width="52.67" height="52.67" fill="#ba955c"/><path d="M 0 52.67 A 52.67 52.67 0 0 1  52.67 0 L 52.67 52.67" fill="#69654d"/><rect x="52.666666666666664" y="0" width="52.666666666666664" height="52.666666666666664" fill="#ECB365"/><rect x="52.67" y="0" width="26.33" height="26.33" fill="#d5a865"/><path d="M 52.67 0 A 26.33 26.33 0 0 1 79 26.33 L 52.67 26.33" fill="#d6a865"/><rect x="79" y="0" width="26.33" height="26.33" fill="#897853"/><path d="M 79 26.33 A 26.33 26.33 0 0 1  105.33 0 L 105.33 26.33" fill="#2b4041"/><rect x="52.67" y="26.33" width="26.33" height="26.33" fill="#4a5347"/><path d="M 52.67 52.66 A 26.33 26.33 0 0 0 79 26.33 L 52.67 26.33" fill="#596e64"/><rect x="79" y="26.33" width="26.33" height="26.33" fill="#e9b165"/><path d="M 79 26.33 A 26.33 26.33 0 0 0 105.33 52.66 L 105.33 26.33" fill="#897853"/><rect x="105.33" y="0" width="52.67" height="52.67" fill="#c6a165"/><polygon points="105.33,0 158,0 105.33,52.67" fill="#e1ac63"/><rect x="158" y="0" width="52.67" height="52.67" fill="#205263"/><path d="M 158 52.67 A 52.67 52.67 0 0 1  210.67000000000002 0 L 158 52.67 A 52.67 52.67 0 0 0 210.67000000000002 0" fill="#887853"/><rect x="210.66666666666666" y="0" width="52.666666666666664" height="52.666666666666664" fill="#ECB365"/><rect x="210.67" y="0" width="26.33" height="26.33" fill="#263d40"/><path d="M 210.67 26.33 A 26.33 26.33 0 0 1 237 0 L 237 6.5825 A 19.7475 19.7475 0 0 0 217.2525 26.33" fill="#868364"/><rect x="237" y="0" width="26.33" height="26.33" fill="#454f46"/><path d="M 237 0 A 26.33 26.33 0 0 1 263.33 26.33 L 256.7475 26.33 A 19.7475 19.7475 0 0 0 237 6.5825" fill="#134c63"/><rect x="210.67" y="26.33" width="26.33" height="26.33" fill="#d0a260"/><path d="M 210.67 26.33 A 26.33 26.33 0 0 0 237 52.66 L 237 46.0775 A 19.7475 19.7475 0 0 1 217.2525 26.33" fill="#a79364"/><rect x="237" y="26.33" width="26.33" height="26.33" fill="#dcaa62"/><path d="M 237 52.66 A 26.33 26.33 0 0 0 263.33 26.33 L 256.7475 26.33 A 19.7475 19.7475 0 0 1 237 46.0775" fill="#9c8d64"/><rect x="0" y="52.67" width="52.67" height="52.67" fill="#9d8e64"/><path d="M 0 105.34 A 52.67 52.67 0 0 0 52.67 52.67 L 0 52.67" fill="#506964"/><rect x="52.666666666666664" y="52.666666666666664" width="52.666666666666664" height="52.666666666666664" fill="#ECB365"/><rect x="52.67" y="52.67" width="26.33" height="26.33" fill="#225363"/><polygon points="79,52.67 79,79 52.67,79" fill="#375d63"/><rect x="79" y="52.67" width="26.33" height="26.33" fill="#9c8d64"/><polygon points="79,52.67 105.33,79 79,79" fill="#daab65"/><rect x="52.67" y="79" width="26.33" height="26.33" fill="#385e63"/><polygon points="52.67,79 79,79 52.67,105.33" fill="#a79264"/><rect x="79" y="79" width="26.33" height="26.33" fill="#898464"/><polygon points="79,79 105.33,79 105.33,105.33" fill="#a29064"/><rect x="105.33333333333333" y="52.666666666666664" width="52.666666666666664" height="52.666666666666664" fill="#ECB365"/><rect x="105.33" y="52.67" width="26.33" height="26.33" fill="#ad9564"/><circle cx="118.495" cy="65.83500000000001" r="13.165" fill="#bf985d"/><rect x="131.67" y="52.67" width="26.33" height="26.33" fill="#434e46"/><rect x="131.67" y="52.67" width="26.33" height="26.33" fill="#807351"/><rect x="105.33" y="79" width="26.33" height="26.33" fill="#5e5f4b"/><circle cx="118.495" cy="92.16499999999999" r="13.165" fill="#617164"/><rect x="131.67" y="79" width="26.33" height="26.33" fill="#b39865"/><rect x="131.67" y="79" width="26.33" height="26.33" fill="#cea565"/><rect x="158" y="52.666666666666664" width="52.666666666666664" height="52.666666666666664" fill="#ECB365"/><rect x="158" y="52.67" width="26.33" height="26.33" fill="#354643"/><path d="M 158 52.67 A 26.33 26.33 0 0 0 184.32999999999998 79 L 184.32999999999998 52.67" fill="#e7b064"/><rect x="184.33" y="52.67" width="26.33" height="26.33" fill="#094763"/><path d="M 184.33 79 A 26.33 26.33 0 0 0 210.66000000000003 52.67 L 184.33 52.67" fill="#bb965c"/><rect x="158" y="79" width="26.33" height="26.33" fill="#6a664d"/><path d="M 158 105.33 A 26.33 26.33 0 0 1  184.32999999999998 79 L 184.32999999999998 105.33" fill="#8d8664"/><rect x="184.33" y="79" width="26.33" height="26.33" fill="#285663"/><path d="M 184.33 79 A 26.33 26.33 0 0 1 210.66000000000003 105.33 L 184.33 105.33" fill="#12313d"/><rect x="210.67" y="52.67" width="52.67" height="52.67" fill="#a38858"/><rect x="210.67" y="52.67" width="52.67" height="52.67" fill="#d6a965"/><rect x="0" y="105.33333333333333" width="52.666666666666664" height="52.666666666666664" fill="#ECB365"/><rect x="0" y="105.33" width="26.33" height="26.33" fill="#4c6764"/><polygon points="26.33,105.33 26.33,131.66 0,131.66" fill="#3b4a44"/><rect x="26.33" y="105.33" width="26.33" height="26.33" fill="#17343d"/><polygon points="26.33,105.33 52.66,105.33 26.33,131.66" fill="#818064"/><rect x="0" y="131.67" width="26.33" height="26.33" fill="#0f4a63"/><polygon points="0,131.67 26.33,131.67 26.33,158" fill="#10303c"/><rect x="26.33" y="131.67" width="26.33" height="26.33" fill="#c6a165"/><polygon points="26.33,131.67 52.66,158 26.33,158" fill="#e5af64"/><rect x="52.666666666666664" y="105.33333333333333" width="52.666666666666664" height="52.666666666666664" fill="#ECB365"/><rect x="52.67" y="105.33" width="26.33" height="26.33" fill="#4b5347"/><circle cx="65.83500000000001" cy="118.495" r="13.165" fill="#c29a5d"/><rect x="79" y="105.33" width="26.33" height="26.33" fill="#766d4f"/><rect x="79" y="105.33" width="26.33" height="26.33" fill="#485247"/><rect x="52.67" y="131.67" width="26.33" height="26.33" fill="#c19a5d"/><circle cx="65.83500000000001" cy="144.83499999999998" r="13.165" fill="#134c63"/><rect x="79" y="131.67" width="26.33" height="26.33" fill="#b99b65"/><rect x="79" y="131.67" width="26.33" height="26.33" fill="#394944"/><rect x="105.33333333333333" y="105.33333333333333" width="52.666666666666664" height="52.666666666666664" fill="#ECB365"/><rect x="105.33" y="105.33" width="26.33" height="26.33" fill="#e9b164"/><path d="M 105.33 131.66 A 26.33 26.33 0 0 1 131.66 105.33 L 131.66 111.9125 A 19.7475 19.7475 0 0 0 111.9125 131.66" fill="#878364"/><rect x="131.67" y="105.33" width="26.33" height="26.33" fill="#ddac65"/><path d="M 131.67 105.33 A 26.33 26.33 0 0 1 158 131.66 L 151.4175 131.66 A 19.7475 19.7475 0 0 0 131.67 111.9125" fill="#e9b265"/><rect x="105.33" y="131.67" width="26.33" height="26.33" fill="#a68a58"/><path d="M 105.33 131.67 A 26.33 26.33 0 0 0 131.66 158 L 131.66 151.4175 A 19.7475 19.7475 0 0 1 111.9125 131.67" fill="#174e63"/><rect x="131.67" y="131.67" width="26.33" height="26.33" fill="#406264"/><path d="M 131.67 158 A 26.33 26.33 0 0 0 158 131.67 L 151.4175 131.67 A 19.7475 19.7475 0 0 1 131.67 151.4175" fill="#d0a260"/><rect x="158" y="105.33" width="52.67" height="52.67" fill="#1c373e"/><path d="M 158 105.33 A 52.67 52.67 0 0 1  210.67000000000002 158 L 158 105.33 A 52.67 52.67 0 0 0 210.67000000000002 158" fill="#ad8e59"/><rect x="210.67" y="105.33" width="52.67" height="52.67" fill="#ac9564"/><polygon points="210.67,105.33 263.34,105.33 210.67,158" fill="#596d64"/><rect x="0" y="158" width="52.67" height="52.67" fill="#506964"/><rect x="0" y="158" width="52.67" height="52.67" fill="#2c4141"/><rect x="52.666666666666664" y="158" width="52.666666666666664" height="52.666666666666664" fill="#ECB365"/><rect x="52.67" y="158" width="26.33" height="26.33" fill="#273e40"/><path d="M 52.67 184.32999999999998 A 26.33 26.33 0 0 1  79 158 L 79 184.32999999999998" fill="#b29764"/><rect x="79" y="158" width="26.33" height="26.33" fill="#1d5163"/><path d="M 79 158 A 26.33 26.33 0 0 1 105.33 184.32999999999998 L 79 184.32999999999998" fill="#e1ae65"/><rect x="52.67" y="184.33" width="26.33" height="26.33" fill="#e5af64"/><path d="M 52.67 184.33 A 26.33 26.33 0 0 0 79 210.66000000000003 L 79 184.33" fill="#4c5447"/><rect x="79" y="184.33" width="26.33" height="26.33" fill="#d8a965"/><path d="M 79 210.66000000000003 A 26.33 26.33 0 0 0 105.33 184.33 L 79 184.33" fill="#344643"/><rect x="105.33" y="158" width="52.67" height="52.67" fill="#566c64"/><path d="M 105.33 210.67000000000002 A 52.67 52.67 0 0 1  158 158 L 105.33 210.67000000000002 A 52.67 52.67 0 0 0 158 158" fill="#11313c"/><rect x="158" y="158" width="52.67" height="52.67" fill="#535849"/><polygon points="210.67000000000002,158 210.67000000000002,210.67000000000002 158,210.67000000000002" fill="#dbab65"/><rect x="210.66666666666666" y="158" width="52.666666666666664" height="52.666666666666664" fill="#ECB365"/><rect x="210.67" y="158" width="26.33" height="26.33" fill="#a98b59"/><polygon points="237,158 237,184.32999999999998 210.67,184.32999999999998" fill="#d7a965"/><rect x="237" y="158" width="26.33" height="26.33" fill="#16343d"/><polygon points="237,158 263.33,158 237,184.32999999999998" fill="#867652"/><rect x="210.67" y="184.33" width="26.33" height="26.33" fill="#575b49"/><polygon points="210.67,184.33 237,184.33 237,210.66000000000003" fill="#ba955c"/><rect x="237" y="184.33" width="26.33" height="26.33" fill="#0f4a63"/><polygon points="237,184.33 263.33,210.66000000000003 237,210.66000000000003" fill="#607164"/><rect x="0" y="210.67" width="52.67" height="52.67" fill="#627164"/><rect x="0" y="210.67" width="52.67" height="52.67" fill="#daa962"/><rect x="52.666666666666664" y="210.66666666666666" width="52.666666666666664" height="52.666666666666664" fill="#ECB365"/><rect x="52.67" y="210.67" width="26.33" height="26.33" fill="#7b7050"/><path d="M 52.67 237 A 26.33 26.33 0 0 0 79 210.67 L 52.67 210.67" fill="#bc965c"/><rect x="79" y="210.67" width="26.33" height="26.33" fill="#968a64"/><path d="M 79 210.67 A 26.33 26.33 0 0 0 105.33 237 L 105.33 210.67" fill="#14333d"/><rect x="52.67" y="237" width="26.33" height="26.33" fill="#c0995d"/><path d="M 52.67 237 A 26.33 26.33 0 0 1 79 263.33 L 52.67 263.33" fill="#63624c"/><rect x="79" y="237" width="26.33" height="26.33" fill="#255563"/><path d="M 79 263.33 A 26.33 26.33 0 0 1  105.33 237 L 105.33 263.33" fill="#ba9b65"/><rect x="105.33" y="210.67" width="52.67" height="52.67" fill="#d5a561"/><rect x="105.33" y="210.67" width="52.67" height="52.67" fill="#b1905a"/><rect x="158" y="210.67" width="52.67" height="52.67" fill="#978055"/><path d="M 158 210.67 A 52.67 52.67 0 0 0 210.67000000000002 263.34 L 210.67000000000002 210.67" fill="#b59965"/><rect x="210.66666666666666" y="210.66666666666666" width="52.666666666666664" height="52.666666666666664" fill="#ECB365"/><rect x="210.67" y="210.67" width="26.33" height="26.33" fill="#746c4f"/><polygon points="237,210.67 237,237 210.67,237" fill="#8a7853"/><rect x="237" y="210.67" width="26.33" height="26.33" fill="#0a4863"/><polygon points="237,210.67 263.33,237 237,237" fill="#325b63"/><rect x="210.67" y="237" width="26.33" height="26.33" fill="#747a64"/><polygon points="210.67,237 237,237 237,263.33" fill="#526a64"/><rect x="237" y="237" width="26.33" height="26.33" fill="#164d63"/><polygon points="237,237 263.33,237 237,263.33" fill="#dcab65"/><rect x="0" y="263.33" width="52.67" height="52.67" fill="#355c63"/><polygon points="0,263.33 52.67,263.33 52.67,316" fill="#9e8e64"/><rect x="52.67" y="263.33" width="52.67" height="52.67" fill="#697564"/><polygon points="52.67,263.33 105.34,316 52.67,316" fill="#c29f65"/><rect x="105.33333333333333" y="263.3333333333333" width="52.666666666666664" height="52.666666666666664" fill="#ECB365"/><rect x="105.33" y="263.33" width="26.33" height="26.33" fill="#233b40"/><path d="M 105.33 289.65999999999997 A 26.33 26.33 0 0 1  131.66 263.33 L 131.66 289.65999999999997" fill="#dbab65"/><rect x="131.67" y="263.33" width="26.33" height="26.33" fill="#304342"/><path d="M 131.67 263.33 A 26.33 26.33 0 0 1 158 289.65999999999997 L 131.67 289.65999999999997" fill="#1d5163"/><rect x="105.33" y="289.67" width="26.33" height="26.33" fill="#a39064"/><path d="M 105.33 289.67 A 26.33 26.33 0 0 0 131.66 316 L 131.66 289.67" fill="#c19f65"/><rect x="131.67" y="289.67" width="26.33" height="26.33" fill="#ad9564"/><path d="M 131.67 316 A 26.33 26.33 0 0 0 158 289.67 L 131.67 289.67" fill="#9e8456"/><rect x="158" y="263.3333333333333" width="52.666666666666664" height="52.666666666666664" fill="#ECB365"/><rect x="158" y="263.33" width="26.33" height="26.33" fill="#ba965c"/><polygon points="184.32999999999998,263.33 184.32999999999998,289.65999999999997 158,289.65999999999997" fill="#848264"/><rect x="184.33" y="263.33" width="26.33" height="26.33" fill="#dbab65"/><polygon points="184.33,263.33 210.66000000000003,263.33 184.33,289.65999999999997" fill="#c29f65"/><rect x="158" y="289.67" width="26.33" height="26.33" fill="#8d7a53"/><polygon points="158,289.67 184.32999999999998,289.67 184.32999999999998,316" fill="#bd975c"/><rect x="184.33" y="289.67" width="26.33" height="26.33" fill="#796f50"/><polygon points="184.33,289.67 210.66000000000003,316 184.33,316" fill="#bf985d"/><rect x="210.67" y="263.33" width="52.67" height="52.67" fill="#777c64"/><polygon points="263.34,263.33 263.34,316 210.67,316" fill="#1b373e"/></g></svg>